<?xml version="1.0" encoding="UTF-8"?>
<svg width="161px" height="47px" viewBox="0 0 161 47" version="1.1" xmlns="http://www.w3.org/2000/svg" xmlns:xlink="http://www.w3.org/1999/xlink">
    <title>Group 18</title>
    <g id="Desktop---Anasayfa" stroke="none" stroke-width="1" fill="none" fill-rule="evenodd">
        <g id="Anasayfa---Menu" transform="translate(-121, -86)" fill-rule="nonzero">
            <g id="Group-17" transform="translate(121, 30)">
                <g id="Group-18" transform="translate(0, 56)">
                    <g id="Logo">
                        <rect id="Rectangle" fill="#FFFFFF" x="52.4053155" y="10.4110786" width="8.75907887" height="35.5889214"></rect>
                        <rect id="Rectangle" fill="#FFFFFF" x="74.2213133" y="10.4110786" width="8.75907887" height="35.5889214"></rect>
                        <rect id="Rectangle" fill="#FFE800" x="74.2213133" y="0.00148836005" width="8.75907887" height="8.69648779"></rect>
                        <rect id="Rectangle" fill="#E1251B" x="41.0221108" y="0.00148836005" width="31.4617778" height="8.69648779"></rect>
                        <rect id="Rectangle" fill="#0F7AB0" x="21.8234931" y="18.2100853" width="17.5211559" height="8.69648779"></rect>
                        <path d="M21.5424171,0 C9.64503054,0 0,10.3627069 0,23.0159999 C0,35.6670603 9.64503054,45.9910698 21.5424171,45.9910698 C21.6391072,45.9910698 21.7357974,45.9888373 21.8294894,45.9888373 L21.8294894,45.9866048 L39.2689458,45.9866048 L39.2689458,45.8623267 L39.2689458,37.5200686 L39.2689458,28.6345591 L30.530854,28.6345591 L30.530854,37.3176516 L21.8302389,37.3161633 L21.820495,37.3146749 C21.7747733,37.3169074 21.7313002,37.3161633 21.6878271,37.3161633 C14.1669818,37.3161633 8.07924963,30.9437497 8.07924963,22.9445586 C8.07924963,14.9453675 14.4847851,8.67713911 22.0056304,8.67713911 C22.0251183,8.67713911 22.0446063,8.67490657 22.0633447,8.67713911 L39.2689458,8.69872033 L39.2689458,0.00446508016 L21.8302389,0.00446508016 C21.7357974,0.00223254008 21.6391072,0 21.5424171,0" id="Path" fill="#FFFFFF"></path>
                    </g>
                    <g id="Gümrük-ve-Turizm-İşl" transform="translate(98.228, 2.36)" fill="#FFFFFF" opacity="0.757928757">
                        <path d="M4.8540008,0.0840000138 C2.30400038,0.0840000138 0.456000075,1.91400031 0.456000075,4.44000073 C0.456000075,7.24200119 2.62800043,8.79000144 4.79400079,8.79000144 C7.39200121,8.79000144 8.92200146,6.79200111 8.92200146,4.38000072 C8.92200146,4.2720007 8.91600146,4.16400068 8.91000146,4.05600066 L5.21400085,4.05600066 L5.21400085,5.31600087 L7.44000122,5.31600087 C7.22400118,6.7020011 6.32400104,7.49400123 4.79400079,7.49400123 C3.13800051,7.49400123 1.87800031,6.25200102 1.87800031,4.44000073 C1.87800031,2.62800043 3.13800051,1.38600023 4.8540008,1.38600023 C5.79000095,1.38600023 6.58200108,1.77600029 7.11000117,2.40600039 L8.10600133,1.44000024 C7.3440012,0.588000096 6.19200101,0.0840000138 4.8540008,0.0840000138 Z" id="Path"></path>
                        <path d="M15.858001,2.89200047 L14.5980008,2.89200047 L14.5980008,6.090001 C14.5980008,7.20000118 13.9800007,7.60800125 13.1940006,7.60800125 C12.4080004,7.60800125 11.7900003,7.20000118 11.7900003,6.090001 L11.7900003,2.89200047 L10.5300001,2.89200047 L10.5300001,6.20400102 C10.5300001,8.03400132 11.8440003,8.79000144 13.1940006,8.79000144 C14.5380008,8.79000144 15.858001,8.03400132 15.858001,6.20400102 L15.858001,2.89200047 Z M11.9880004,0.24600004 C11.4900003,0.24600004 11.1120002,0.636000104 11.1120002,1.13400019 C11.1120002,1.63200027 11.4900003,2.01000033 11.9880004,2.01000033 C12.4860004,2.01000033 12.8760005,1.63200027 12.8760005,1.13400019 C12.8760005,0.636000104 12.4860004,0.24600004 11.9880004,0.24600004 Z M14.3880007,0.24600004 C13.8900007,0.24600004 13.5120006,0.636000104 13.5120006,1.13400019 C13.5120006,1.63200027 13.8900007,2.01000033 14.3880007,2.01000033 C14.8860008,2.01000033 15.2760009,1.63200027 15.2760009,1.13400019 C15.2760009,0.636000104 14.8860008,0.24600004 14.3880007,0.24600004 Z" id="Shape"></path>
                        <path d="M24.8640013,2.74200045 C24.1500012,2.74200045 23.262001,2.94600048 22.7640009,3.76800062 C22.3680009,3.13200051 21.6540008,2.74200045 20.7780006,2.74200045 C20.1900005,2.74200045 19.4760004,2.91600048 19.0140003,3.59400059 L19.0140003,2.89200047 L17.7660001,2.89200047 L17.7660001,8.64000142 L19.0260003,8.64000142 L19.0260003,5.45400089 C19.0260003,4.47000073 19.7040004,3.93600065 20.5140006,3.93600065 C21.3540007,3.93600065 21.8520008,4.47600073 21.8520008,5.44200089 L21.8520008,8.64000142 L23.112001,8.64000142 L23.112001,5.45400089 C23.112001,4.47000073 23.7900011,3.93600065 24.6000012,3.93600065 C25.4400014,3.93600065 25.9380015,4.47600073 25.9380015,5.44200089 L25.9380015,8.64000142 L27.1980017,8.64000142 L27.1980017,5.02800082 C27.1980017,3.6840006 26.2320015,2.74200045 24.8640013,2.74200045 Z" id="Path"></path>
                        <path d="M32.0160006,2.74200045 C31.3140005,2.74200045 30.7260004,2.99400049 30.3480003,3.54000058 L30.3480003,2.89200047 L29.1060001,2.89200047 L29.1060001,8.64000142 L30.3600003,8.64000142 L30.3600003,5.4780009 C30.3600003,4.50000074 30.9300004,3.93600065 31.7280006,3.93600065 C32.0340006,3.93600065 32.4180007,4.00800066 32.6820007,4.14600068 L32.9820008,2.90400048 C32.6940007,2.79000046 32.4000007,2.74200045 32.0160006,2.74200045 Z" id="Path"></path>
                        <path d="M39.468001,2.89200047 L38.2080008,2.89200047 L38.2080008,6.090001 C38.2080008,7.20000118 37.5900007,7.60800125 36.8040006,7.60800125 C36.0180004,7.60800125 35.4000003,7.20000118 35.4000003,6.090001 L35.4000003,2.89200047 L34.1400001,2.89200047 L34.1400001,6.20400102 C34.1400001,8.03400132 35.4540003,8.79000144 36.8040006,8.79000144 C38.1480008,8.79000144 39.468001,8.03400132 39.468001,6.20400102 L39.468001,2.89200047 Z M35.5980004,0.24600004 C35.1000003,0.24600004 34.7220002,0.636000104 34.7220002,1.13400019 C34.7220002,1.63200027 35.1000003,2.01000033 35.5980004,2.01000033 C36.0960004,2.01000033 36.4860005,1.63200027 36.4860005,1.13400019 C36.4860005,0.636000104 36.0960004,0.24600004 35.5980004,0.24600004 Z M37.9980007,0.24600004 C37.5000007,0.24600004 37.1220006,0.636000104 37.1220006,1.13400019 C37.1220006,1.63200027 37.5000007,2.01000033 37.9980007,2.01000033 C38.4960008,2.01000033 38.8860009,1.63200027 38.8860009,1.13400019 C38.8860009,0.636000104 38.4960008,0.24600004 37.9980007,0.24600004 Z" id="Shape"></path>
                        <polygon id="Path" points="42.6360003 0 41.3760001 0 41.3760001 8.64000142 42.6360003 8.64000142 42.6360003 6.21600102 43.2600004 6.21600102 45.1740007 8.64000142 46.764001 8.64000142 44.3340006 5.59800092 46.740001 2.89200047 45.1620007 2.89200047 43.2660004 5.07600083 42.6360003 5.07600083"></polygon>
                        <polygon id="Path" points="56.166001 2.89200047 54.8340008 2.89200047 53.1360005 7.3380012 51.4380002 2.89200047 50.07 2.89200047 52.3800004 8.64000142 53.8680006 8.64000142"></polygon>
                        <path d="M59.6760005,2.74200045 C57.9840002,2.74200045 56.8140001,3.96600065 56.8140001,5.76600095 C56.8140001,7.59000124 58.0320003,8.79000144 59.7540005,8.79000144 C60.6240007,8.79000144 61.4160008,8.58000141 62.1180009,7.98000131 L61.4940008,7.08600116 C61.0200007,7.46400122 60.4080006,7.69200126 59.8320006,7.69200126 C59.0160004,7.69200126 58.2900003,7.26000119 58.1220003,6.22800102 L62.370001,6.22800102 C62.382001,6.084001 62.394001,5.92200097 62.394001,5.76000094 C62.388001,3.96600065 61.2840008,2.74200045 59.6760005,2.74200045 Z M59.6520005,3.85800063 C60.4500007,3.85800063 60.9720007,4.38000072 61.1100008,5.27400086 L58.1280003,5.27400086 C58.2600003,4.43400073 58.7580004,3.85800063 59.6520005,3.85800063 Z" id="Shape"></path>
                        <polygon id="Path" points="6.79200111 17.24 0 17.24 0 18.5240002 2.71800045 18.5240002 2.71800045 25.6400014 4.07400067 25.6400014 4.07400067 18.5240002 6.79200111 18.5240002"></polygon>
                        <path d="M12.612001,19.8920005 L11.3520008,19.8920005 L11.3520008,23.090001 C11.3520008,24.2000012 10.7340007,24.6080012 9.94800055,24.6080012 C9.16200042,24.6080012 8.54400032,24.2000012 8.54400032,23.090001 L8.54400032,19.8920005 L7.28400011,19.8920005 L7.28400011,23.204001 C7.28400011,25.0340013 8.59800033,25.7900014 9.94800055,25.7900014 C11.2920008,25.7900014 12.612001,25.0340013 12.612001,23.204001 L12.612001,19.8920005 Z" id="Path"></path>
                        <path d="M17.4300006,19.7420004 C16.7280005,19.7420004 16.1400004,19.9940005 15.7620003,20.5400006 L15.7620003,19.8920005 L14.5200001,19.8920005 L14.5200001,25.6400014 L15.7740003,25.6400014 L15.7740003,22.4780009 C15.7740003,21.5000007 16.3440004,20.9360006 17.1420006,20.9360006 C17.4480006,20.9360006 17.8320007,21.0080007 18.0960007,21.1460007 L18.3960008,19.9040005 C18.1080007,19.7900005 17.8140007,19.7420004 17.4300006,19.7420004 Z" id="Path"></path>
                        <path d="M20.9340003,19.8920005 L19.6740001,19.8920005 L19.6740001,25.6400014 L20.9340003,25.6400014 L20.9340003,19.8920005 Z M20.2980002,17.018 C19.8000001,17.018 19.4220001,17.4080001 19.4220001,17.9060001 C19.4220001,18.4040002 19.8000001,18.7820003 20.2980002,18.7820003 C20.7960003,18.7820003 21.1860004,18.4040002 21.1860004,17.9060001 C21.1860004,17.4080001 20.7960003,17.018 20.2980002,17.018 Z" id="Shape"></path>
                        <polygon id="Path" points="27.4140009 19.8920005 22.7040001 19.8920005 22.7040001 21.0320007 25.8000006 21.0320007 22.6080001 24.7280013 22.6080001 25.6400014 27.4740009 25.6400014 27.4740009 24.5000012 24.2760003 24.5000012 27.4140009 20.8040006"></polygon>
                        <path d="M36.2460013,19.7420004 C35.5320012,19.7420004 34.644001,19.9460005 34.1460009,20.7680006 C33.7500009,20.1320005 33.0360008,19.7420004 32.1600006,19.7420004 C31.5720005,19.7420004 30.8580004,19.9160005 30.3960003,20.5940006 L30.3960003,19.8920005 L29.1480001,19.8920005 L29.1480001,25.6400014 L30.4080003,25.6400014 L30.4080003,22.4540009 C30.4080003,21.4700007 31.0860004,20.9360006 31.8960006,20.9360006 C32.7360007,20.9360006 33.2340008,21.4760007 33.2340008,22.4420009 L33.2340008,25.6400014 L34.494001,25.6400014 L34.494001,22.4540009 C34.494001,21.4700007 35.1720011,20.9360006 35.9820012,20.9360006 C36.8220014,20.9360006 37.3200015,21.4760007 37.3200015,22.4420009 L37.3200015,25.6400014 L38.5800017,25.6400014 L38.5800017,22.0280008 C38.5800017,20.6840006 37.6140015,19.7420004 36.2460013,19.7420004 Z" id="Path"></path>
                        <path d="M2.26800037,34.24 L0.912000149,34.24 L0.912000149,42.6400014 L2.26800037,42.6400014 L2.26800037,34.24 Z M1.45800024,31.6779996 C0.936000153,31.6779996 0.540000089,32.0859997 0.540000089,32.6139998 C0.540000089,33.1359999 0.936000153,33.5319999 1.45800024,33.5319999 C1.98600033,33.5319999 2.39400039,33.1359999 2.39400039,32.6139998 C2.39400039,32.0859997 1.98600033,31.6779996 1.45800024,31.6779996 Z" id="Shape"></path>
                        <path d="M8.84400085,37.3540005 C8.25000076,36.9700005 7.41600062,36.7480005 6.51600047,36.7480005 C5.05200023,36.7480005 4.14000008,37.4500006 4.14000008,38.5900008 C4.14000008,39.5140009 4.81800019,40.102001 6.0900004,40.276001 L6.6900005,40.354001 C7.37400061,40.4500011 7.68600066,40.6660011 7.68600066,40.9900011 C7.68600066,41.4220012 7.23600059,41.6920013 6.37800045,41.6920013 C5.4420003,41.6920013 4.89600021,41.4220012 4.48200014,41.1040012 L3.90000004,42.0460013 C4.54800015,42.5320014 5.31600028,42.7060014 5.90400037,42.7600014 L5.29800027,44.5660017 L6.61200049,44.5660017 L7.19400058,42.7060014 C8.33400077,42.4960014 8.98200088,41.8120013 8.98200088,40.9060011 C8.98200088,39.922001 8.23800075,39.3880009 6.98400055,39.2080009 L6.39000045,39.1180008 C5.86200036,39.0400008 5.4420003,38.9260008 5.4420003,38.5240007 C5.4420003,38.1160007 5.84400036,37.8400006 6.52800047,37.8400006 C7.24200059,37.8400006 7.95600071,38.1160007 8.30400077,38.3320007 L8.84400085,37.3540005 Z" id="Path"></path>
                        <polygon id="Path" points="11.7180003 34 10.4580001 34 10.4580001 42.6400014 11.7180003 42.6400014"></polygon>
                        <path d="M16.1340005,36.7420004 C14.4420002,36.7420004 13.2720001,37.9660007 13.2720001,39.7660009 C13.2720001,41.5900012 14.4900003,42.7900014 16.2120005,42.7900014 C17.0820007,42.7900014 17.8740008,42.5800014 18.5760009,41.9800013 L17.9520008,41.0860012 C17.4780007,41.4640012 16.8660006,41.6920013 16.2900006,41.6920013 C15.4740004,41.6920013 14.7480003,41.2600012 14.5800003,40.228001 L18.828001,40.228001 C18.840001,40.084001 18.852001,39.922001 18.852001,39.7600009 C18.846001,37.9660007 17.7420008,36.7420004 16.1340005,36.7420004 Z M16.1100005,37.8580006 C16.9080007,37.8580006 17.4300007,38.3800007 17.5680008,39.2740009 L14.5860003,39.2740009 C14.7180003,38.4340007 15.2160004,37.8580006 16.1100005,37.8580006 Z" id="Shape"></path>
                        <path d="M24.2640008,36.8920005 L22.0620004,36.8920005 L22.0620004,35.1520002 L20.8020002,35.1520002 L20.8020002,36.8920005 L19.656,36.8920005 L19.656,38.0320007 L20.8020002,38.0320007 L20.8020002,40.5580011 C20.8020002,42.0880013 21.5640003,42.7900014 22.8660005,42.7900014 C23.5860007,42.7900014 24.1680008,42.5320014 24.6300008,42.2200013 L24.1320007,41.2180012 C23.7900007,41.4340012 23.3640006,41.6080012 22.9740006,41.6080012 C22.4700005,41.6080012 22.0620004,41.3080012 22.0620004,40.5340011 L22.0620004,38.0320007 L24.2640008,38.0320007 L24.2640008,36.8920005 Z" id="Path"></path>
                        <path d="M32.8920013,36.7420004 C32.1780012,36.7420004 31.290001,36.9460005 30.7920009,37.7680006 C30.3960009,37.1320005 29.6820008,36.7420004 28.8060006,36.7420004 C28.2180005,36.7420004 27.5040004,36.9160005 27.0420003,37.5940006 L27.0420003,36.8920005 L25.7940001,36.8920005 L25.7940001,42.6400014 L27.0540003,42.6400014 L27.0540003,39.4540009 C27.0540003,38.4700007 27.7320004,37.9360006 28.5420006,37.9360006 C29.3820007,37.9360006 29.8800008,38.4760007 29.8800008,39.4420009 L29.8800008,42.6400014 L31.140001,42.6400014 L31.140001,39.4540009 C31.140001,38.4700007 31.8180011,37.9360006 32.6280012,37.9360006 C33.4680014,37.9360006 33.9660015,38.4760007 33.9660015,39.4420009 L33.9660015,42.6400014 L35.2260017,42.6400014 L35.2260017,39.0280008 C35.2260017,37.6840006 34.2600015,36.7420004 32.8920013,36.7420004 Z" id="Path"></path>
                        <path d="M39.5820005,36.7420004 C37.8900002,36.7420004 36.7200001,37.9660007 36.7200001,39.7660009 C36.7200001,41.5900012 37.9380003,42.7900014 39.6600005,42.7900014 C40.5300007,42.7900014 41.3220008,42.5800014 42.0240009,41.9800013 L41.4000008,41.0860012 C40.9260007,41.4640012 40.3140006,41.6920013 39.7380006,41.6920013 C38.9220004,41.6920013 38.1960003,41.2600012 38.0280003,40.228001 L42.276001,40.228001 C42.288001,40.084001 42.300001,39.922001 42.300001,39.7600009 C42.294001,37.9660007 41.1900008,36.7420004 39.5820005,36.7420004 Z M39.5580005,37.8580006 C40.3560007,37.8580006 40.8780007,38.3800007 41.0160008,39.2740009 L38.0340003,39.2740009 C38.1660003,38.4340007 38.6640004,37.8580006 39.5580005,37.8580006 Z" id="Shape"></path>
                        <polygon id="Path" points="45.1140003 34 43.8540001 34 43.8540001 42.6400014 45.1140003 42.6400014"></polygon>
                        <path d="M49.5300005,36.7420004 C47.8380002,36.7420004 46.6680001,37.9660007 46.6680001,39.7660009 C46.6680001,41.5900012 47.8860003,42.7900014 49.6080005,42.7900014 C50.4780007,42.7900014 51.2700008,42.5800014 51.9720009,41.9800013 L51.3480008,41.0860012 C50.8740007,41.4640012 50.2620006,41.6920013 49.6860006,41.6920013 C48.8700004,41.6920013 48.1440003,41.2600012 47.9760003,40.228001 L52.224001,40.228001 C52.236001,40.084001 52.248001,39.922001 52.248001,39.7600009 C52.242001,37.9660007 51.1380008,36.7420004 49.5300005,36.7420004 Z M49.5060005,37.8580006 C50.3040007,37.8580006 50.8260007,38.3800007 50.9640008,39.2740009 L47.9820003,39.2740009 C48.1140003,38.4340007 48.6120004,37.8580006 49.5060005,37.8580006 Z" id="Shape"></path>
                        <path d="M56.7120006,36.7420004 C56.0100005,36.7420004 55.4220004,36.9940005 55.0440003,37.5400006 L55.0440003,36.8920005 L53.8020001,36.8920005 L53.8020001,42.6400014 L55.0560003,42.6400014 L55.0560003,39.4780009 C55.0560003,38.5000007 55.6260004,37.9360006 56.4240006,37.9360006 C56.7300006,37.9360006 57.1140007,38.0080007 57.3780007,38.1460007 L57.6780008,36.9040005 C57.3900007,36.7900005 57.0960007,36.7420004 56.7120006,36.7420004 Z" id="Path"></path>
                        <path d="M60.2160003,36.8920005 L58.9560001,36.8920005 L58.9560001,42.6400014 L60.2160003,42.6400014 L60.2160003,36.8920005 Z M59.5800002,34.018 C59.0820001,34.018 58.7040001,34.4080001 58.7040001,34.9060001 C58.7040001,35.4040002 59.0820001,35.7820003 59.5800002,35.7820003 C60.0780003,35.7820003 60.4680004,35.4040002 60.4680004,34.9060001 C60.4680004,34.4080001 60.0780003,34.018 59.5800002,34.018 Z" id="Shape"></path>
                    </g>
                </g>
            </g>
        </g>
    </g>
</svg>